<svg xmlns="http://www.w3.org/2000/svg" viewBox="0 0 512 512" role="img" aria-label="Credo">
  <defs>
    <linearGradient id="bg" x1="0" y1="0" x2="512" y2="512" gradientUnits="userSpaceOnUse">
      <stop offset="0" stop-color="#0D1A16"/>
      <stop offset="1" stop-color="#07100D"/>
    </linearGradient>
    <linearGradient id="cg" x1="150" y1="120" x2="380" y2="400" gradientUnits="userSpaceOnUse">
      <stop offset="0" stop-color="#3BE8B0"/>
      <stop offset=".55" stop-color="#12C58C"/>
      <stop offset="1" stop-color="#7C74FF"/>
    </linearGradient>
    <mask id="cm">
      <rect width="512" height="512" fill="#000"/>
      <path d="M256 141 397 193V301C397 377 338 434 256 456 174 434 115 377 115 301V193Z" fill="#fff"/>
      <circle cx="256" cy="275" r="35" fill="#000"/>
      <path d="M232.7 300 220.8 372.6A10.4 10.4 0 0 0 231.1 384H280.9A10.4 10.4 0 0 0 291.2 372.6L279.3 300Z" fill="#000"/>
    </mask>
  </defs>
  <rect width="512" height="512" fill="url(#bg)"/>
  <g mask="url(#cm)">
    <path d="M256 141 397 193V301C397 377 338 434 256 456 174 434 115 377 115 301V193Z" fill="url(#cg)"/>
  </g>
</svg>
